<svg width="1000" height="1000" viewBox="0 0 1000 1000" fill="none" xmlns="http://www.w3.org/2000/svg">
<rect width="1000" height="1000" rx="85" fill="white"/>
<path d="M471.803 107.215C470.082 107.372 464.608 107.919 459.681 108.31C346.055 118.553 239.623 179.854 172.213 274.072C134.676 326.46 110.669 385.884 101.597 448.827C98.391 470.798 98 477.288 98 507.078C98 536.869 98.391 543.358 101.597 565.33C123.337 715.533 230.239 841.731 375.224 888.489C401.187 896.855 428.557 902.563 459.681 906.003C471.803 907.332 524.197 907.332 536.319 906.003C590.043 900.061 635.556 886.768 680.444 863.859C687.326 860.34 688.655 859.402 687.717 858.62C687.091 858.151 657.765 818.821 622.575 771.282L558.606 684.882L478.45 566.268C434.344 501.058 398.059 447.732 397.746 447.732C397.433 447.654 397.12 500.354 396.964 564.704C396.729 677.376 396.651 681.911 395.243 684.569C393.21 688.401 391.646 689.964 388.362 691.685C385.859 692.936 383.67 693.17 371.861 693.17H358.332L354.735 690.903C352.389 689.417 350.669 687.462 349.496 685.195L347.853 681.676L348.01 524.906L348.244 368.057L350.669 365.007C351.92 363.365 354.579 361.254 356.456 360.238C359.662 358.674 360.913 358.518 374.442 358.518C390.395 358.518 393.054 359.143 397.198 363.678C398.371 364.929 441.773 430.296 493.699 509.033C545.625 587.77 616.631 695.281 651.509 748.06L714.852 843.999L718.059 841.887C746.446 823.435 776.475 797.163 800.248 769.796C850.845 711.701 883.455 640.861 894.403 565.33C897.609 543.358 898 536.869 898 507.078C898 477.288 897.609 470.798 894.403 448.827C872.663 298.624 765.762 172.426 620.776 125.668C595.204 117.38 567.99 111.672 537.492 108.232C529.984 107.45 478.293 106.59 471.803 107.215ZM635.556 349.135C639.31 351.011 642.36 354.608 643.455 358.361C644.08 360.394 644.237 403.868 644.08 501.84L643.846 642.425L619.056 604.425L594.188 566.424V464.23C594.188 398.16 594.501 361.02 594.97 359.221C596.221 354.843 598.958 351.402 602.712 349.369C605.918 347.727 607.091 347.571 619.369 347.571C630.942 347.571 632.976 347.727 635.556 349.135Z" fill="black"/>
</svg>
